#!OML:ASF X:\für Bonn\!DataBase\2005_08_11_Bastian_Final\c3d\Bastian.ASF
:FULLY-SPECIFIED
:DEGREES
79
root -2.36293 16.7011 -5.97396 173.653 -49.6971 -185.336
lowerback 9.83545 -4.30863 -7.50209
upperback 1.40083 -6.59415 0.305068
thorax -3.14894 -3.23376 5.28241
lowerneck 11.6172 -18.0301 -6.13708
upperneck -12.3308 -24.0006 15.5263
head -2.85015 -12.7199 6.5011
rclavicle 1.56543e-014 1.78906e-014
rhumerus -157.789 -158.582 150.175
rradius 122.373
rwrist -124.56
rhand 26.8344 14.6762
rfingers 7.12502
rthumb 50.8397 -6.09417
lclavicle 1.56543e-014 1.78906e-014
lhumerus 84.0945 -2.37663 45.7308
lradius 78.0204
lwrist 213.628
lhand -7.4505 41.7618
lfingers 7.12502
lthumb 18.4375 70.9081
rfemur -16.1974 -8.12625 1.19028
rtibia 53.2099
rfoot -15.2611 2.55178
rtoes -18.6312
lfemur 14.6964 2.24199 -15.8924
ltibia 26.6078
lfoot -21.476 -15.4432
ltoes -22.355
80
root -2.35382 16.7028 -6.03684 173.929 -50.0731 -185.449
lowerback 9.79187 -4.36134 -7.27958
upperback 1.21759 -6.64032 0.215709
thorax -3.34664 -3.24135 5.07847
lowerneck 11.3034 -18.0275 -6.01413
upperneck -12.2949 -23.9845 15.432
head -2.81916 -12.7029 6.42708
rclavicle 4.64162e-014 7.95139e-015
rhumerus -157.753 -157.97 150.84
rradius 122.295
rwrist -124.849
rhand 27.6019 14.587
rfingers 7.12502
rthumb 51.5386 -5.78879
lclavicle 4.64162e-014 7.95139e-015
lhumerus 84.2326 -1.71181 45.4388
lradius 78.313
lwrist 213.652
lhand -7.04702 42.2712
lfingers 7.12502
lthumb 18.8256 71.3802
rfemur -16.2329 -8.37296 1.24629
rtibia 53.4015
rfoot -15.1667 2.25379
rtoes -18.303
lfemur 14.6938 2.0868 -15.7329
ltibia 26.2957
lfoot -21.1776 -15.5476
ltoes -23.2057
81
root -2.34635 16.727 -6.10175 174.227 -50.4356 -185.566
lowerback 9.75066 -4.42702 -7.08406
upperback 1.0286 -6.70609 0.157627
thorax -3.54257 -3.25912 4.92461
lowerneck 11.0381 -17.9859 -5.99361
upperneck -12.318 -23.9239 15.3926
head -2.79871 -12.6657 6.38855
rclavicle -7.95387e-014 -3.02153e-014
rhumerus -157.616 -157.385 151.433
rradius 122.116
rwrist -125.116
rhand 28.318 14.4522
rfingers 7.12502
rthumb 52.1886 -5.54082
lclavicle -7.95387e-014 -3.02153e-014
lhumerus 84.2919 -1.01602 45.2025
lradius 78.6845
lwrist 213.553
lhand -6.60565 42.7955
lfingers 7.12502
lthumb 19.2501 71.8627
rfemur -16.2071 -8.65539 1.33552
rtibia 53.4884
rfoot -15.0602 1.93697
rtoes -18.207
lfemur 14.6995 1.955 -15.5784
ltibia 25.9418
lfoot -20.8588 -15.609
ltoes -24.2469
82
root -2.33968 16.7544 -6.16685 174.462 -50.8028 -185.626
lowerback 9.69826 -4.4953 -6.8126
upperback 0.884328 -6.7664 0.099081
thorax -3.69524 -3.27996 4.72457
lowerneck 10.673 -17.9609 -5.9529
upperneck -12.3061 -23.8839 15.3375
head -2.75426 -12.6359 6.32954
rclavicle -7.79236e-014 1.07344e-014
rhumerus -157.474 -156.743 151.98
rradius 121.868
rwrist -125.296
rhand 29.1742 14.3779
rfingers 7.12502
rthumb 52.963 -5.13789
lclavicle -7.79236e-014 1.07344e-014
lhumerus 84.3897 -0.309769 45.0125
lradius 79.1125
lwrist 213.426
lhand -6.17916 43.2744
lfingers 7.12502
lthumb 19.6601 72.3003
rfemur -16.1195 -8.92604 1.46175
rtibia 53.5352
rfoot -14.9635 1.59521
rtoes -18.1875
lfemur 14.726 1.72601 -15.4259
ltibia 25.574
lfoot -20.5012 -15.6105
ltoes -25.3941
83
root -2.33227 16.7863 -6.23282 174.769 -51.1755 -185.757
lowerback 9.63104 -4.5605 -6.60371
upperback 0.747503 -6.82818 0.0497481
thorax -3.82388 -3.30272 4.56679
lowerneck 10.2922 -17.9331 -5.9567
upperneck -12.2957 -23.8439 15.2951
head -2.70066 -12.6049 6.27661
rclavicle 2.9271e-014 4.05521e-014
rhumerus -157.326 -156.087 152.581
rradius 121.57
rwrist -125.423
rhand 30.1312 14.3188
rfingers 7.12502
rthumb 53.8249 -4.63694
lclavicle 2.9271e-014 4.05521e-014
lhumerus 84.476 0.382297 44.9064
lradius 79.5552
lwrist 213.262
lhand -5.6975 43.6135
lfingers 7.12502
lthumb 20.1231 72.5913
rfemur -16.0188 -9.21495 1.54975
rtibia 53.4827
rfoot -14.8122 1.28133
rtoes -18.1889
lfemur 14.7805 1.33302 -15.3956
ltibia 25.0881
lfoot -20.0896 -15.4262
ltoes -26.7434
84
root -2.32401 16.8189 -6.29936 175.04 -51.5467 -185.889
lowerback 9.61278 -4.6222 -6.38392
upperback 0.606881 -6.88873 -0.00418125
thorax -3.98625 -3.32421 4.40382
lowerneck 9.96704 -17.9032 -5.95054
upperneck -12.294 -23.8004 15.2252
head -2.66356 -12.5716 6.22282
rclavicle 1.24961e-013 5.96354e-015
rhumerus -157.244 -155.586 153.215
rradius 121.25
rwrist -125.319
rhand 30.9859 14.502
rfingers 7.12502
rthumb 54.591 -3.92841
lclavicle 1.24961e-013 5.96354e-015
lhumerus 84.5633 1.0218 44.88
lradius 80.0343
lwrist 213.014
lhand -5.19391 43.8394
lfingers 7.12502
lthumb 20.6071 72.7656
rfemur -15.8621 -9.52881 1.62786
rtibia 53.3913
rfoot -14.6343 1.0343
rtoes -18.0488
lfemur 14.8568 0.94486 -15.3529
ltibia 24.6263
lfoot -19.6531 -15.2482
ltoes -28.1779
85
root -2.3159 16.8532 -6.36526 175.273 -51.9166 -185.923
lowerback 9.53756 -4.70356 -6.07413
upperback 0.480126 -6.96031 -0.0397006
thorax -4.10975 -3.35539 4.20535
lowerneck 9.61037 -17.861 -6.02309
upperneck -12.2669 -23.7487 15.2244
head -2.59619 -12.5354 6.18955
rclavicle 4.35338e-014 1.43125e-014
rhumerus -157.119 -155.111 153.881
rradius 120.905
rwrist -125.128
rhand 31.755 14.8863
rfingers 7.12502
rthumb 55.2775 -3.04972
lclavicle 4.35338e-014 1.43125e-014
lhumerus 84.6651 1.65055 44.9549
lradius 80.538
lwrist 212.701
lhand -4.93346 44.041
lfingers 7.12502
lthumb 20.8573 72.9399
rfemur -15.7297 -9.901 1.7781
rtibia 53.2505
rfoot -14.4362 0.80171
rtoes -18.0875
lfemur 14.8648 0.586513 -15.2161
ltibia 24.1938
lfoot -19.102 -15.1907
ltoes -29.0593
86
root -2.30711 16.8913 -6.43146 175.521 -52.2987 -185.985
lowerback 9.4954 -4.78099 -5.77181
upperback 0.333655 -7.03143 -0.0907244
thorax -4.27431 -3.38487 4.00004
lowerneck 9.27955 -17.8272 -6.04353
upperneck -12.1906 -23.7068 15.1718
head -2.53014 -12.502 6.13687
rclavicle -4.64659e-015 -1.39149e-014
rhumerus -156.976 -154.715 154.512
rradius 120.509
rwrist -124.834
rhand 32.4441 15.4382
rfingers 7.12502
rthumb 55.8898 -2.03662
lclavicle -4.64659e-015 -1.39149e-014
lhumerus 84.7732 2.19697 45.0676
lradius 81.0276
lwrist 212.308
lhand -4.80599 44.3503
lfingers 7.12502
lthumb 20.9798 73.2356
rfemur -15.5565 -10.2671 1.90889
rtibia 53.0418
rfoot -14.2269 0.638725
rtoes -18.0614
lfemur 14.8337 0.223653 -15.0865
ltibia 23.7959
lfoot -18.4197 -15.1598
ltoes -29.9507
87
root -2.29771 16.9331 -6.49782 175.744 -52.6758 -186.018
lowerback 9.4391 -4.86063 -5.44954
upperback 0.197219 -7.10214 -0.134628
thorax -4.42275 -3.41639 3.78946
lowerneck 8.96038 -17.7927 -6.1119
upperneck -12.0846 -23.6697 15.129
head -2.44948 -12.4694 6.09055
rclavicle -3.60794e-014 -5.56597e-015
rhumerus -156.726 -154.347 155.078
rradius 120.064
rwrist -124.441
rhand 33.0268 16.0015
rfingers 7.12502
rthumb 56.4056 -1.06915
lclavicle -3.60794e-014 -5.56597e-015
lhumerus 84.9269 2.68332 45.2224
lradius 81.4129
lwrist 211.951
lhand -4.70735 44.8245
lfingers 7.12502
lthumb 21.0746 73.6992
rfemur -15.342 -10.5813 2.06953
rtibia 52.7469
rfoot -13.9903 0.463991
rtoes -18.206
lfemur 14.7871 -0.138171 -14.9309
ltibia 23.4089
lfoot -17.5852 -15.1766
ltoes -30.6672
88
root -2.28858 16.9821 -6.56436 175.901 -53.0227 -185.982
lowerback 9.39846 -4.93793 -5.08553
upperback 0.05228 -7.16588 -0.165199
thorax -4.59364 -3.44505 3.57185
lowerneck 8.72257 -17.7263 -6.23488
upperneck -11.9792 -23.595 15.154
head -2.37051 -12.4227 6.07776
rclavicle 1.59028e-015 -2.66371e-014
rhumerus -156.422 -154.033 155.579
rradius 119.458
rwrist -124.078
rhand 33.8105 16.6308
rfingers 7.12502
rthumb 57.0963 0.125258
lclavicle 1.59028e-015 -2.66371e-014
lhumerus 85.0573 3.06717 45.395
lradius 81.7413
lwrist 211.606
lhand -4.67661 45.4193
lfingers 7.12502
lthumb 21.1041 74.2908
rfemur -15.0692 -10.7436 2.30262
rtibia 52.3552
rfoot -13.7081 0.25361
rtoes -18.0397
lfemur 14.7643 -0.471704 -14.7247
ltibia 22.9865
lfoot -16.5824 -15.1811
ltoes -31.5026
89
root -2.27912 17.037 -6.6315 176.134 -53.378 -186.041
lowerback 9.3537 -5.00659 -4.75298
upperback -0.0968924 -7.22377 -0.231514
thorax -4.76896 -3.47141 3.33414
lowerneck 8.5335 -17.6759 -6.35706
upperneck -11.8658 -23.5427 15.1992
head -2.29198 -12.3893 6.07436
rclavicle 2.0358e-013 2.34566e-014
rhumerus -156.072 -153.655 155.968
rradius 118.727
rwrist -123.82
rhand 34.6702 17.067
rfingers 7.12502
rthumb 57.8495 1.21129
lclavicle 2.0358e-013 2.34566e-014
lhumerus 85.3 3.34233 45.6437
lradius 81.9852
lwrist 211.024
lhand -4.64531 46.0672
lfingers 7.12502
lthumb 21.1342 74.9353
rfemur -14.729 -10.8 2.49464
rtibia 51.8154
rfoot -13.3454 -0.0429033
rtoes -17.9333
lfemur 14.813 -0.842113 -14.5924
ltibia 22.3622
lfoot -15.2962 -15.1467
ltoes -32.2612
90
root -2.26858 17.0951 -6.69838 176.441 -53.7495 -186.255
lowerback 9.35079 -5.06806 -4.53515
upperback -0.210994 -7.28749 -0.305128
thorax -4.91823 -3.50085 3.15443
lowerneck 8.25418 -17.6341 -6.47976
upperneck -11.6917 -23.5028 15.1942
head -2.1864 -12.3552 6.04351
rclavicle 2.64632e-014 -9.54166e-015
rhumerus -155.634 -153.207 156.281
rradius 117.859
rwrist -123.748
rhand 35.7367 17.3152
rfingers 7.12502
rthumb 58.7771 2.31216
lclavicle 2.64632e-014 -9.54166e-015
lhumerus 85.6106 3.542 45.9977
lradius 82.1655
lwrist 210.209
lhand -4.53375 46.7432
lfingers 7.12502
lthumb 21.2413 75.5994
rfemur -14.317 -10.8577 2.56089
rtibia 51.2531
rfoot -12.9687 -0.278153
rtoes -17.6991
lfemur 14.8446 -1.20396 -14.554
ltibia 21.8551
lfoot -13.947 -15.1331
ltoes -32.9799
91
root -2.26037 17.1786 -6.76756 176.822 -54.1199 -186.587
lowerback 9.37465 -5.12439 -4.38751
upperback -0.321906 -7.35434 -0.386839
thorax -5.07209 -3.53073 3.00781
lowerneck 8.00923 -17.5803 -6.68065
upperneck -11.5186 -23.4528 15.2439
head -2.07144 -12.3173 6.03919
rclavicle 5.73494e-014 8.34896e-015
rhumerus -155.102 -152.777 156.53
rradius 116.835
rwrist -123.754
rhand 37.0262 17.3795
rfingers 7.12502
rthumb 59.8876 3.48179
lclavicle 5.73494e-014 8.34896e-015
lhumerus 85.9543 3.67236 46.3987
lradius 82.3287
lwrist 209.195
lhand -4.2168 47.3798
lfingers 7.12502
lthumb 21.5458 76.2014
rfemur -13.7461 -10.8743 2.57413
rtibia 50.4912
rfoot -12.5555 -0.524689
rtoes -17.4085
lfemur 14.9715 -1.60338 -14.6206
ltibia 21.1629
lfoot -12.4086 -15.0558
ltoes -33.5968
